<svg version="1.1" xmlns="http://www.w3.org/2000/svg" xmlns:xlink="http://www.w3.org/1999/xlink" width="378.62608" height="301.44874" viewBox="0,0,378.62608,301.44874"><defs><radialGradient cx="232.15745" cy="139.18433" r="188.31304" gradientUnits="userSpaceOnUse" id="color-1"><stop offset="0" stop-color="#ff2c2c"/><stop offset="1" stop-color="#720000"/></radialGradient><radialGradient cx="95.7034" cy="134.10184" r="49.70472" gradientUnits="userSpaceOnUse" id="color-2"><stop offset="0" stop-color="#ffffff"/><stop offset="1" stop-color="#b9b9b9"/></radialGradient><radialGradient cx="127.42575" cy="108.98987" r="28.09337" gradientUnits="userSpaceOnUse" id="color-3"><stop offset="0" stop-color="#cccccc"/><stop offset="1" stop-color="#000000"/></radialGradient><radialGradient cx="146.15745" cy="96.18432" r="50.33457" gradientUnits="userSpaceOnUse" id="color-4"><stop offset="0" stop-color="#ff2c2c"/><stop offset="1" stop-color="#720000"/></radialGradient><radialGradient cx="375.76772" cy="131.10184" r="49.70472" gradientUnits="userSpaceOnUse" id="color-5"><stop offset="0" stop-color="#ffffff"/><stop offset="1" stop-color="#b9b9b9"/></radialGradient><radialGradient cx="344.04538" cy="105.98987" r="28.09337" gradientUnits="userSpaceOnUse" id="color-6"><stop offset="0" stop-color="#cccccc"/><stop offset="1" stop-color="#000000"/></radialGradient><radialGradient cx="318.15745" cy="94.18432" r="50.33457" gradientUnits="userSpaceOnUse" id="color-7"><stop offset="0" stop-color="#ff2c2c"/><stop offset="1" stop-color="#720000"/></radialGradient></defs><g transform="translate(-50.68696,-29.27563)"><g data-paper-data="{&quot;isPaintingLayer&quot;:true}" fill-rule="nonzero" stroke="#000000" stroke-linejoin="miter" stroke-miterlimit="10" stroke-dasharray="" stroke-dashoffset="0" style="mix-blend-mode: normal"><g><path d="M420.91575,323.18433c-8.79388,4.25875 -98.50787,12.14534 -105.31598,0.29554c-13.90251,-24.1979 -22.7604,-143.78876 -22.7604,-143.78876c0,0 -38.42146,63.76426 -56.57219,63.12955c-15.93928,-0.55738 -50.53161,-60.24593 -50.53161,-60.24593c0,0 -12.36992,113.4138 -36.65474,136.17642c-11.17887,10.47817 -86.81149,3.59534 -94.52544,-0.56681c-14.81359,-7.99284 31.52662,-266.14769 52.74629,-281.03329c8.9712,-6.2933 69.12716,-0.73247 78.08001,-1.48697c11.04678,-0.93096 50.65889,41.62466 50.65889,41.62466c0,0 31.91834,-34.69849 39.36214,-40.04106c19.29396,-13.84771 84.07974,-3.06788 87.33286,-1.45373c14.75288,7.32016 88.94223,272.49276 58.18018,287.39039z" fill="url(#color-1)" stroke-width="2" stroke-linecap="butt"/><path d="M292.44651,148.38456c0,0 -10.78714,-3.77248 -20.03434,-0.62982c-12.17683,4.1383 -15.11651,15.45749 -35.44736,15.79446c-19.82409,0.32857 -19.72253,-10.01146 -29.77633,-12.60325c-13.36711,-3.44594 -23.74197,0.43861 -23.74197,0.43861" fill="none" stroke-width="2" stroke-linecap="round"/><path d="M193.94651,138.38456l-16.5,18.5" fill="none" stroke-width="2" stroke-linecap="round"/><path d="M286.94651,138.38456l10,16.5" fill="none" stroke-width="2" stroke-linecap="round"/><g stroke-linecap="butt"><path d="M168.21703,112.7743c0,29.21161 1.44749,43.08162 -51.39935,42.22852c-50.28099,-0.81168 -47.98696,-13.87001 -47.98696,-43.08162c0,-28.08005 -2.46469,-24.79643 48.4135,-26.0196c43.96637,-1.05699 50.97281,-2.33891 50.97281,26.8727z" fill="url(#color-2)" stroke-width="2"/><path d="M89.56923,112.1446c0.92229,-14.87777 8.12857,-24.88716 25.93873,-24.88716c17.81016,0 30.145,6.47559 30.145,21.3819c0,14.90633 -1.11811,31.19655 -26.63976,29.79447c-17.78332,-0.97697 -30.84602,-3.67141 -29.44394,-26.28923z" data-paper-data="{&quot;index&quot;:null}" fill="url(#color-3)" stroke-width="0"/><path d="M169.07014,111.49465h-100.23942c0,0 -1.66902,-10.51632 1.5714,-19.93374c3.49111,-10.14595 13.09193,-19.29056 48.54831,-20.58858c37.96,-0.61052 45.80383,13.00326 48.17981,24.61318c1.73759,8.49042 1.93989,15.90914 1.93989,15.90914z" fill="url(#color-4)" stroke-width="2"/></g><g data-paper-data="{&quot;index&quot;:null}" stroke-linecap="butt"><path d="M354.2269,82.90161c50.87819,1.22317 48.4135,-2.06045 48.4135,26.0196c0,29.2116 2.29404,42.26993 -47.98696,43.08162c-52.84684,0.85309 -51.39936,-13.01692 -51.39936,-42.22852c0,-29.21161 7.00644,-27.92969 50.97281,-26.8727z" fill="url(#color-5)" stroke-width="2"/><path d="M381.90187,109.14458c1.40208,22.61782 -11.66062,25.31227 -29.44394,26.28924c-25.52165,1.40208 -26.63977,-14.88814 -26.63977,-29.79447c0,-14.90631 12.33485,-21.3819 30.145,-21.3819c17.81015,0 25.01644,10.00939 25.93872,24.88716z" data-paper-data="{&quot;index&quot;:null}" fill="url(#color-6)" stroke-width="0"/><path d="M302.40099,108.49464c0,0 0.2023,-7.41872 1.93989,-15.90914c2.37598,-11.60991 10.21981,-25.22369 48.17981,-24.61317c35.45639,1.29802 45.05721,10.44263 48.54832,20.58858c3.24043,9.41742 1.5714,19.93374 1.5714,19.93374h-100.23941z" fill="url(#color-7)" stroke-width="2"/></g></g></g></g></svg>